<?xml version="1.0" standalone="no"?>
<!DOCTYPE svg PUBLIC "-//W3C//DTD SVG 20010904//EN"
 "http://www.w3.org/TR/2001/REC-SVG-20010904/DTD/svg10.dtd">
<svg version="1.0" xmlns="http://www.w3.org/2000/svg"
 width="149.000000pt" height="187.000000pt" viewBox="0 0 149.000000 187.000000"
 preserveAspectRatio="xMidYMid meet">
<metadata>
Created by potrace 1.10, written by Peter Selinger 2001-2011
</metadata>
<g transform="translate(0.000000,187.000000) scale(0.100000,-0.100000)"
fill="#ffffff" stroke="none">
<path d="M325 1702 c-115 -40 -163 -110 -174 -257 l-6 -80 -58 -3 -57 -3 0
-99 0 -99 58 -3 57 -3 3 -362 2 -363 115 0 115 0 0 365 0 366 101 -3 101 -3
149 -358 c146 -349 149 -358 134 -387 -8 -16 -25 -36 -37 -44 -29 -21 -97 -20
-148 0 -23 9 -43 15 -45 13 -6 -7 -75 -161 -75 -169 0 -4 24 -18 53 -31 71
-31 228 -39 292 -15 56 22 113 79 152 153 32 60 403 1010 403 1031 0 9 -32 12
-118 12 l-118 0 -104 -297 c-57 -164 -109 -309 -115 -322 -10 -21 -24 9 -135
298 l-123 321 -183 0 -184 0 0 40 c0 93 61 135 161 112 83 -19 79 -24 79 87
l0 98 -57 12 c-81 16 -180 13 -238 -7z"/>
</g>
</svg>
