<?xml version="1.0" standalone="no"?>
<!DOCTYPE svg PUBLIC "-//W3C//DTD SVG 20010904//EN"
 "http://www.w3.org/TR/2001/REC-SVG-20010904/DTD/svg10.dtd">
<svg version="1.0" xmlns="http://www.w3.org/2000/svg"
 width="192.000000pt" height="192.000000pt" viewBox="0 0 192.000000 192.000000"
 preserveAspectRatio="xMidYMid meet">
<metadata>
Created by potrace 1.10, written by Peter Selinger 2001-2011
</metadata>
<g transform="translate(0.000000,192.000000) scale(0.100000,-0.100000)"
fill="#1ed760" stroke="none">
<path d="M845 1849 c-299 -44 -562 -258 -675 -551 -41 -107 -60 -212 -60 -338
0 -259 85 -467 264 -646 134 -134 274 -208 451 -239 94 -16 165 -19 238 -9
l46 7 -19 27 c-22 30 -50 128 -50 172 0 27 -1 28 -58 28 -339 0 -624 365 -573
734 23 163 84 288 196 401 222 223 513 221 737 -5 177 -180 241 -444 164 -685
-46 -144 -148 -284 -262 -360 -54 -36 -56 -38 -49 -73 26 -139 142 -196 222
-109 37 41 51 84 60 185 6 73 22 99 24 40 2 -53 -1 -131 -8 -162 l-5 -29 42
34 c65 52 162 180 209 275 67 135 94 252 94 414 0 113 -4 151 -26 233 -118
443 -523 720 -962 656z"/>
<path d="M849 1554 c-106 -32 -190 -151 -223 -314 -34 -170 -30 -464 10 -616
34 -133 97 -224 179 -263 59 -27 62 -27 32 9 -34 40 -50 94 -44 147 9 83 66
134 155 141 111 8 176 -50 210 -186 l17 -73 26 28 c63 68 100 169 119 327 16
123 7 392 -15 496 -47 219 -157 321 -343 319 -42 0 -98 -7 -123 -15z"/>
<path d="M889 615 c-52 -28 -74 -120 -45 -188 7 -18 30 -47 50 -65 32 -27 44
-32 90 -32 l53 0 7 38 c16 100 1 207 -35 243 -23 23 -82 25 -120 4z"/>
</g>
</svg>
